<svg xmlns="http://www.w3.org/2000/svg" viewBox="0 0 920.25 173.33"><defs><style>.cls-1{fill:#e21a1a;}</style></defs><title>codeminer42</title><g id="Layer_2" data-name="Layer 2"><g id="Layer_1-2" data-name="Layer 1"><g id="Layer_1-2-2" data-name="Layer 1-2"><path class="cls-1" d="M664.93 173.28L640 157.8 737.47.1 835 157.8l-25.09 15.49-72.45-117.14zM920.25 157.84l-25.19 15.49L822.7 56.27l-14.35 22.9c-5.75-9.11-11.26-17.67-16.48-26.4-.56-.94.22-3.11 1-4.34 9.72-15.88 19.44-31.7 29.82-48.43z"/><path d="M350.49 60.64c-4.56 8.51-9 17-13.79 25.35-1.39 2.43-4 5.49-6.17 5.55s-4.63-3.2-6-5.56c-4.86-8.51-9.37-17.36-14.7-27.4a41.79 41.79 0 0 0-.77 5c0 17-.09 34 .07 51 0 4.58-1 7.42-6.31 7.39s-6-3.06-6-7.56c.17-24.3.07-48.6.09-72.9 0-3.38-.85-7.29 3.86-8.36 4.31-1 8.24 0 10.51 4.09 4.56 8.1 8.86 16.35 13.27 24.53l5.92 10.94c5.14-9.51 9.9-18.36 14.71-27.18 1.74-3.2 3-7.08 5.58-9.25a13.9 13.9 0 0 1 9.72-2.69c1.63.21 3.86 4.47 3.9 6.93.29 24.9.12 49.82.23 74.69 0 4.67-1.9 6.7-6.46 6.67s-6.28-2.3-6.25-6.87c.16-18 .06-36 .06-54zM454.64 90.94V39.5c0-5.54 2.69-7.86 8-6.33 1.73.5 4.07 3 4.08 4.67q.38 39.46 0 79c0 1.59-1.76 4.5-2.73 4.52-3 0-6.8-.09-8.81-1.85-2.73-2.43-4.2-6.31-6-9.72-8.09-15.54-16.28-31.09-25.31-48.26-.29 3.16-.53 4.58-.53 6 0 15.8-.13 31.59 0 47.39 0 4.86-1.57 7.14-6.6 7.1s-5.77-2.93-5.76-7.16c.12-24.69 0-49.38.18-74.12 0-2.53 1.22-6.46 3-7.29a7.91 7.91 0 0 1 10.58 3.29c3.65 6.5 7.06 13.17 10.5 19.81q9.06 17.45 18 34.88zM136.67 77.16c0-12.54.15-25.07-.07-37.61-.09-5 2-7.06 6.76-7 7.89 0 15.8-.24 23.66.11 15.2.68 24.09 9.14 24.73 24.3.57 13.52.56 27.1 0 40.62-.6 15.36-9.82 24-25.16 24.53-7.47.24-15 0-22.44.13-5.25.11-7.73-1.79-7.59-7.46.32-12.54.11-25.08.11-37.62zM150 110.73c5.55 0 10.79.33 16-.07 8-.63 12.72-5.3 12.93-13.37q.51-20 0-40.1c-.19-7.19-4.48-12.19-10.69-12.76-5.94-.52-12-.11-18.23-.11zM586.61 81.94c5.13 9.66 10 18.92 15 28.1 2.37 4.26 4.26 8.29-1.41 11.2s-7.91-1.29-10-5.46c-4-7.92-8.2-15.8-12.15-23.72-5.05-10.13-5-10.17-17.34-8.34 0 10.51-.13 21.17 0 31.8.1 5.39-3 7.07-7.29 6.08-2-.47-4.86-3.37-4.93-5.19-.32-26.09-.19-52.17-.24-78.26 0-3.51 1.39-5.33 5-5.3 9.9.12 19.85-.36 29.68.51 12.41 1.11 19.13 7.93 20.66 19.26 1.93 14-2.75 23-14.58 28.07-.53.26-1.01.56-2.4 1.25zm-25.43-37.66v29.64c7.29-.47 14.25-.29 20.9-1.52s9.65-6.91 9.26-14.93c-.35-7.12-3.89-12.32-10.28-13s-13.15-.12-19.88-.12zM65.74 77.42c.47-8.66.56-17.36 1.54-26 .9-7.81 5.67-13.37 12.88-16.35a35 35 0 0 1 26.63-.34c10.12 3.88 14.35 12.15 14.58 22.38.34 13.74.58 27.52 0 41.24-.77 16.73-10.78 24.84-28.87 24.52-16.25-.28-25.59-9.25-26.23-25.52-.27-6.66 0-13.37 0-20zm42.81.8c0-6.88.26-13.77-.06-20.66-.41-8.76-5.77-13.5-14.58-13.5s-14.26 4.54-14.5 13.55q-.5 20 0 40c.19 9.11 5.3 13.73 14.16 13.8 9.21.07 14.58-4.71 15-13.8.24-6.5 0-12.94 0-19.4zM220.67 44.08v28.14c5.7 0 11.26.09 16.84 0 3.56-.07 6 1 6.08 5s-2.33 5.1-5.93 5c-5.43-.12-10.87 0-16.82 0v28.65c11.35 0 22.61.07 33.88 0 3.49 0 6.08.74 6.39 4.68s-.69 6.77-5.53 6.74c-14-.1-27.95 0-41.9 0-4.19 0-6.32-1.9-6.31-6.27q.07-38.55 0-77.11c0-4.43 2.15-6.26 6.31-6.26h41.9c3.86 0 5.63 1.82 5.64 5.48s-1.69 6.08-5.82 6.08c-11.33-.14-22.65-.13-34.73-.13zM.23 77.78c0-8.51-.34-17 .12-25.43C.69 46 4.12 41 9.43 37.3c10.3-7.11 28.71-6.22 38.15 1.75a19.61 19.61 0 0 1 7.1 14.85c.16 3.74-.69 7-5.3 7.29-4.3.32-7.18-.63-7.92-5.91C40.24 47 35.38 43.8 26.28 44.11c-8 .27-13.15 4.08-13.45 11.87-.57 14.58-.56 29.16 0 43.65.29 7.78 5.77 11.65 14.18 11.82 8.8.17 13-2.82 14.34-11.35.68-4.37 2.32-6.73 6.78-6.71s6.56 2.24 6.62 6.78a21.66 21.66 0 0 1-17.29 21.35 53 53 0 0 1-20.34.13c-9.45-1.91-15.8-8.51-16.74-18.4-.76-8.46-.15-16.97-.15-25.47zM496.58 43.88v28.56c5.83 0 11.42.09 17 0 3.65-.07 6 1.22 5.88 5.12-.1 3.72-2.54 4.53-5.81 4.46-5.44-.13-10.94 0-16.85 0v28.66c1.94.1 4.07.29 6.21.3 9.51 0 19 .11 28.53 0 3.94 0 5.65 2 5.69 5.52s-1.53 5.53-5.56 5.48c-14-.16-27.95-.11-41.88 0-4.45 0-6.08-2.05-6-6.34q.13-38.24 0-76.48c0-4.45 1.83-6.26 6.08-6.25h41.88c3.9 0 5.64 1.92 5.49 5.55S535.36 44 531.51 44c-9.31-.09-18.61 0-27.95 0zM394 77.78c0 12.55-.15 25.1.09 37.67.07 4.35-1.4 6.44-5.8 6.54s-6.72-1.6-6.72-6.44q.17-38.26 0-76.55c0-4.54 2-6.15 6.17-6.16 4.56 0 6.43 1.81 6.33 6.62-.29 12.8-.07 25.54-.07 38.32z"/><path class="cls-1" d="M899.91.16a20 20 0 0 1 20.3 19.74v.62a20.5 20.5 0 1 1-41-.46c.2-11.54 9-20.06 20.7-19.9zm-.27 32.42a12.36 12.36 0 0 0 12.16-12.46 12.58 12.58 0 0 0-12.15-11.88 12.44 12.44 0 0 0-12.15 11.88 12.43 12.43 0 0 0 12.15 12.45z"/></g></g></g></svg>
