<svg xmlns="http://www.w3.org/2000/svg" viewBox="0 0 569.99 185.75"><title>insiter-logo</title><g id="Layer_2" data-name="Layer 2"><g id="Layer_1-2" data-name="Layer 1"><path d="M33.6,148.8H0V0H33.6Z"/><path d="M147.6,0V148.8h-34l-42-83.2v83.2H38V0H72.2L114,83V0Z"/><path d="M240.6,102.6a48.37,48.37,0,0,1-.5,7,49.8,49.8,0,0,1-1.5,6.8,47.27,47.27,0,0,1-6.4,13,44.5,44.5,0,0,1-10,10.3,46.87,46.87,0,0,1-12.8,6.7,45.32,45.32,0,0,1-14.8,2.4,44.49,44.49,0,0,1-17.9-3.6,46.53,46.53,0,0,1-24.5-24.6,45.2,45.2,0,0,1-3.6-18h33.6a12.3,12.3,0,0,0,3.6,8.9,11.8,11.8,0,0,0,8.8,3.7,11.67,11.67,0,0,0,7.4-2.5,12.69,12.69,0,0,0,4.4-6.3,10.18,10.18,0,0,0,.6-3.6,10.7,10.7,0,0,0-3.6-8.4,12.78,12.78,0,0,0-8.8-3.2,45.56,45.56,0,0,1-17.9-3.5,47,47,0,0,1-14.6-9.6,44.66,44.66,0,0,1-9.9-14.3A43.78,43.78,0,0,1,148.6,46a46.63,46.63,0,0,1,.5-6.8,49.14,49.14,0,0,1,1.5-6.8,47.23,47.23,0,0,1,6.4-13A44.47,44.47,0,0,1,167,9.1a46.86,46.86,0,0,1,12.8-6.7A45.31,45.31,0,0,1,194.6,0a44.5,44.5,0,0,1,17.9,3.6A46.55,46.55,0,0,1,237,28.2,44.73,44.73,0,0,1,240.6,46H207a12.29,12.29,0,0,0-12.4-12.4,11.68,11.68,0,0,0-7.4,2.5,12.69,12.69,0,0,0-4.4,6.3,9.22,9.22,0,0,0-.6,3.6,10.69,10.69,0,0,0,3.6,8.4,12.77,12.77,0,0,0,8.8,3.2,45.64,45.64,0,0,1,17.9,3.5,47.14,47.14,0,0,1,14.6,9.6A44.75,44.75,0,0,1,237,85,43.31,43.31,0,0,1,240.6,102.6Z"/><path d="M276.6,148.8H243V0h33.6Z"/><path d="M380.19,33.6h-33.8V148.8h-33.6V33.6H279V0h101.2Z"/><path d="M414.59,33.6v24H457V91.2h-42.4v24h57.6v33.6H381V0h91.2V33.6Z"/><path d="M535.39,148.8l-26-56.4H509v56.4h-33.6V0h45.4a46.4,46.4,0,0,1,32.9,13.5,46.44,46.44,0,0,1,9.9,14.7,45.22,45.22,0,0,1,3.6,18,44.37,44.37,0,0,1-7,24.5,46.68,46.68,0,0,1-18.4,16.7L570,148.8Z"/><path d="M.27,166.24H2.65v19.27H.27Z"/><path d="M17.09,166.24h2.22l2.37,7.69q1,3.26,1.82,7-.29-2.23-.42-4t-.14-3.41v-7.19h2.39v19.27H23.09l-2.67-8.68q-.37-1.21-.69-2.48t-.6-2.67q0-.18-.07-.42l-.12-.57.06.56q0,.23,0,.39l.13,2,.13,2.38q0,.2,0,.49t0,.65l.13,8.4H17.09Z"/><path d="M45.65,166.64v2.53a3.32,3.32,0,0,0-2-.85,1.89,1.89,0,0,0-1.53.72,2.71,2.71,0,0,0-.59,1.83,3.38,3.38,0,0,0,.42,1.74,7.62,7.62,0,0,0,.71,1q.5.61,1.29,1.47a11.48,11.48,0,0,1,2,2.78,6.6,6.6,0,0,1,.53,2.78,5.72,5.72,0,0,1-1.16,3.68,3.66,3.66,0,0,1-3,1.41,3.88,3.88,0,0,1-2.6-.91v-2.57a3.86,3.86,0,0,0,2.31,1,1.82,1.82,0,0,0,1.52-.71,3,3,0,0,0,.55-1.92,4.11,4.11,0,0,0-.42-1.88,7.76,7.76,0,0,0-.61-.92q-.39-.52-1-1.15-.9-1-1.5-1.72a8.13,8.13,0,0,1-.88-1.31,6.17,6.17,0,0,1-.55-2.77,5.52,5.52,0,0,1,1.08-3.58A3.57,3.57,0,0,1,43.23,166,4.81,4.81,0,0,1,45.65,166.64Z"/><path d="M60.21,166.24h2.38v19.27H60.21Z"/><path d="M77,166.24H80a6.8,6.8,0,0,1,2.25.32,3.57,3.57,0,0,1,1.51,1.11,7.24,7.24,0,0,1,1.42,3.12,25.53,25.53,0,0,1,.42,5.33,23.51,23.51,0,0,1-.47,5.19,5.84,5.84,0,0,1-1.51,2.93q-1.29,1.26-4.63,1.26H77Zm2.38,17a2.94,2.94,0,0,0,2.91-1.44q.75-1.44.75-5.58a17.58,17.58,0,0,0-.72-6.13,2.63,2.63,0,0,0-2.64-1.67h-.3Z"/><path d="M99.64,166.24H106v2.2H102v6.1h3.5v2.2H102v6.58H106v2.2H99.64Z"/><path d="M135,166.24h7.74v2.27H140.1v17h-2.33v-17H135Z"/><path d="M155.79,166.24h2.38v7.54h3.49v-7.54H164v19.27h-2.38V176h-3.49v9.54h-2.38Z"/><path d="M178.48,166.24h6.33v2.2h-3.95v6.1h3.5v2.2h-3.5v6.58h3.95v2.2h-6.33Z"/><path d="M213.94,166.24h2.3l1.2,9,.19,1.32q.14,1.07.21,2l.13,1.64s0,.12,0,.22,0,.25,0,.41l.06-.62q.14-1.64.29-3t.34-2.53l1.27-8.34h1.83l1.19,8.1q.26,1.8.44,3.33t.29,2.93q.11-1.47.26-2.85t.3-2.7l.17-1.29,1-7.54h2.28l-3.12,19.27h-1.85l-1.25-8.33s0-.17-.06-.41-.08-.59-.14-1l-.24-1.92c0-.15,0-.37-.08-.67s-.07-.68-.11-1.14l-.06-.8c0,.19,0,.36,0,.5s0,.26,0,.35q-.06.82-.1,1.28t-.05.56l-.24,1.85-.12,1c0,.24-.05.39-.07.45l-1.29,8.33H217Z"/><path d="M240.86,166.24h6.33v2.2h-3.95v6.1h3.5v2.2h-3.5v6.58h3.95v2.2h-6.33Z"/><path d="M261.09,166.24h3.23q3.79,0,3.79,5.13a6.58,6.58,0,0,1-.49,2.91,3.13,3.13,0,0,1-1.74,1.44,3.86,3.86,0,0,1,2,1.6,6.1,6.1,0,0,1,.54,2.9q0,5.31-4.16,5.31h-3.11Zm2.24,8.49a2.29,2.29,0,0,0,1.92-.7,4.57,4.57,0,0,0,.54-2.58q0-3.12-2.06-3.12h-.4Zm0,8.56a2.5,2.5,0,0,0,2-.69,4.06,4.06,0,0,0,.56-2.48,4.28,4.28,0,0,0-.58-2.58,2.37,2.37,0,0,0-2-.75Z"/><path d="M297.64,177.93h4.16v1.95h-4.16Z"/><path d="M330,166.24h7.74v2.27h-2.67v17h-2.33v-17H330Z"/><path d="M350.81,166.24h6.33v2.2h-3.95v6.1h3.5v2.2h-3.5v6.58h3.95v2.2h-6.33Z"/><path d="M371,166.24h3.13a3.79,3.79,0,0,1,2.89,1,5.77,5.77,0,0,1,1.2,4,7.41,7.41,0,0,1-.63,3.33,2.78,2.78,0,0,1-1.81,1.55l3.25,9.38h-2.41l-3.24-9.44v9.44H371Zm2.38,8.54a2.4,2.4,0,0,0,2-.7,3.76,3.76,0,0,0,.57-2.36,8.42,8.42,0,0,0-.12-1.54,2.9,2.9,0,0,0-.38-1,1.55,1.55,0,0,0-.66-.59,2.3,2.3,0,0,0-1-.19h-.4Z"/><path d="M392.62,166.24h6.33v2.2H395v6.1h3.5v2.2H395v6.58h3.95v2.2h-6.33Z"/><path d="M418.73,166.64v2.53a3.32,3.32,0,0,0-2-.85,1.89,1.89,0,0,0-1.53.72,2.71,2.71,0,0,0-.59,1.83,3.38,3.38,0,0,0,.42,1.74,7.57,7.57,0,0,0,.71,1q.5.61,1.29,1.47a11.5,11.5,0,0,1,2,2.78,6.6,6.6,0,0,1,.53,2.78,5.72,5.72,0,0,1-1.16,3.68,3.66,3.66,0,0,1-3,1.41,3.88,3.88,0,0,1-2.6-.91v-2.57a3.86,3.86,0,0,0,2.31,1,1.82,1.82,0,0,0,1.52-.71,3,3,0,0,0,.55-1.92,4.11,4.11,0,0,0-.42-1.88,7.59,7.59,0,0,0-.61-.92q-.39-.52-1-1.15-.9-1-1.5-1.72a8.14,8.14,0,0,1-.88-1.31,6.18,6.18,0,0,1-.55-2.77,5.52,5.52,0,0,1,1.08-3.58,3.57,3.57,0,0,1,2.92-1.34A4.81,4.81,0,0,1,418.73,166.64Z"/><path d="M433.29,166.24h2.38v19.27h-2.38Z"/><path d="M450.11,166.24h2.22l2.37,7.69q1,3.26,1.82,7-.29-2.23-.42-4t-.14-3.41v-7.19h2.39v19.27h-2.23l-2.67-8.68q-.37-1.21-.69-2.48t-.6-2.67c0-.12,0-.26-.08-.42l-.12-.57.06.56c0,.15,0,.29,0,.39l.13,2,.13,2.38c0,.13,0,.3,0,.49s0,.41,0,.65l.13,8.4h-2.34Z"/><path d="M475.63,166.24h1.85l3.79,19.27h-2.36l-.66-3.76h-3.5l-.67,3.76h-2.29Zm2.28,13.51-.53-3.07q-.53-3.13-.86-6.69-.16,1.74-.41,3.51t-.59,3.78l-.43,2.47Z"/><path d="M509.58,177.93h4.16v1.95h-4.16Z"/><path d="M543.38,166.24h3.13a4,4,0,0,1,3.29,1.25,6.29,6.29,0,0,1,1,4q0,3.84-2.07,5a7,7,0,0,1-3,.51v8.55h-2.38Zm2.38,8.5a2.6,2.6,0,0,0,2-.65,3.64,3.64,0,0,0,.57-2.35,4.54,4.54,0,0,0-.55-2.52,2,2,0,0,0-1.73-.8h-.33Z"/><path d="M564.38,166.24h2.38v19.27h-2.38Z"/></g></g></svg>