<?xml version="1.0" standalone="no"?>
<!DOCTYPE svg PUBLIC "-//W3C//DTD SVG 20010904//EN"
 "http://www.w3.org/TR/2001/REC-SVG-20010904/DTD/svg10.dtd">
<svg version="1.0" xmlns="http://www.w3.org/2000/svg"
 width="16.000000pt" height="16.000000pt" viewBox="0 0 16.000000 16.000000"
 preserveAspectRatio="xMidYMid meet">
<metadata>
Created by potrace 1.11, written by Peter Selinger 2001-2013
</metadata>
<g transform="translate(0.000000,16.000000) scale(0.006154,-0.006154)"
fill="#000000" stroke="none">
<path d="M488 2366 c-1 -1 -2 -479 -3 -1063 l-2 -1063 186 0 186 0 -1 1058
c-1 581 -2 1060 -3 1063 -1 4 -354 9 -363 5z"/>
<path d="M906 2361 c-2 -4 -3 -481 -2 -1061 l1 -1055 185 0 185 0 0 583 c0
320 2 582 5 582 3 0 14 -24 24 -52 10 -29 24 -66 31 -83 7 -16 57 -142 110
-280 54 -137 104 -263 111 -280 7 -16 49 -124 94 -240 45 -116 85 -216 87
-223 4 -9 52 -12 193 -12 l189 0 -1 1063 0 1063 -181 0 c-100 0 -184 -3 -187
-7 -3 -4 -5 -266 -5 -583 0 -316 -3 -572 -6 -568 -4 4 -23 52 -44 107 -21 55
-44 114 -51 130 -7 17 -45 113 -84 215 -39 102 -76 194 -80 205 -5 11 -19 45
-30 75 -11 30 -25 64 -29 75 -5 11 -38 94 -74 185 l-64 165 -187 1 c-103 0
-189 -2 -190 -5z"/>
</g>
</svg>
