<?xml version="1.0" ?><!DOCTYPE svg  PUBLIC '-//W3C//DTD SVG 1.1//EN'  'http://www.w3.org/Graphics/SVG/1.1/DTD/svg11.dtd'><svg height="32px" id="Layer_1" style="enable-background:new 0 0 32 32;" version="1.1" viewBox="0 0 32 32" width="32px" xml:space="preserve" xmlns="http://www.w3.org/2000/svg" xmlns:xlink="http://www.w3.org/1999/xlink"><g transform="translate(384 144)"><path d="M-383-119h12c0.554,0,1-0.336,1-0.75v-1.5c0-0.414-0.446-0.75-1-0.75h-12c-0.553,0-1,0.336-1,0.75v1.5   C-384-119.336-383.553-119-383-119z M-383-115h12c0.554,0,1-0.336,1-0.75v-1.5c0-0.414-0.446-0.75-1-0.75h-12   c-0.553,0-1,0.336-1,0.75v1.5C-384-115.336-383.553-115-383-115z M-383-123h12c0.554,0,1-0.336,1-0.75v-1.5   c0-0.414-0.446-0.75-1-0.75h-12c-0.553,0-1,0.336-1,0.75v1.5C-384-123.336-383.553-123-383-123z M-368.044-123.397   c0.017-0.117,0.044-0.229,0.044-0.353v-1.5c0-1.543-1.316-2.75-3-2.75h-4c0-2.763,2.238-5,5-5c2.763,0,5,2.237,5,5   C-365-125.935-366.256-124.16-368.044-123.397z M-384-137h28v18h-12.118c0.07-0.237,0.118-0.487,0.118-0.75V-121h6   c0-2.209,1.791-4,4-4v-6c-2.209,0-4-1.791-4-4h-16c0,2.209-1.791,4-4,4v3h-1c-0.354,0-0.686,0.063-1,0.162V-137z M-352-141v20h-2   v-18h-28v-2H-352z"/></g></svg>