<?xml version="1.0" encoding="UTF-8" standalone="no"?>
<svg width="603px" height="96px" viewBox="0 0 603 96" version="1.1" xmlns="http://www.w3.org/2000/svg" xmlns:xlink="http://www.w3.org/1999/xlink">
    <!-- Generator: Sketch 43.2 (39069) - http://www.bohemiancoding.com/sketch -->
    <title>infoway-logo</title>
    <desc>Created with Sketch.</desc>
    <defs></defs>
    <g id="Page-1" stroke="none" stroke-width="1" fill="none" fill-rule="evenodd">
        <g id="infoway-logo">
            <g>
                <path d="M385.651832,51.5290909 L401.366193,1.20787879 L416.426043,1.20787879 L386.715415,94.4078788 L365.495269,33.4866667 L344.466023,94.4078788 L318.982455,16.0684848 C318.982455,16.0684848 316.018967,5.66545455 301.559088,0.98969697 L326.842666,0.98969697 C326.842666,0.98969697 329.597073,-0.0739393939 331.087907,4.60484848 L344.887214,51.5290909 L365.495269,1.20787879 L385.651832,51.5290909 Z M417.07601,93.2121212 L471.000573,0.0303030303 L524.191839,93.2121212 C524.191839,93.2121212 495.584186,85.1333333 469.897598,85.1333333 C444.20495,85.1333333 417.07601,93.2121212 417.07601,93.2121212 Z M449.719824,69.730303 L493.005528,69.3545455 L471.000573,30.4787879 L449.719824,69.730303 Z M585.715717,1.50545455 L602.590627,1.50545455 L568.446888,52.1448485 L568.446888,94.9206061 L552.314365,94.9206061 L552.314365,52.1448485 L518.152446,1.50545455 L535.042506,1.50545455 L560.386687,39.0751515 L585.715717,1.50545455 Z" id="way" fill="#38B449"></path>
                <path d="M0,94.4418182 L0,0.547878788 L16.5506834,0.547878788 L16.5506834,94.4418182 L0,94.4418182 Z M93.4534854,0.547272727 L111.904073,0.547272727 L111.904073,94.4412121 L52.3919126,43.189697 L52.3919126,94.4412121 L33.9504151,94.4412121 L33.9504151,0.547272727 L93.4534854,52.7048485 L93.4534854,0.547272727 Z M147.049883,0.547272727 L189.529566,0.547272727 L189.529566,17.1078788 L147.049883,17.1078788 L147.049883,35.42 L181.436034,35.42 L181.436034,51.9715152 L147.049883,51.9715152 L147.049883,94.4412121 L130.499199,94.4412121 L130.499199,0.547272727 L136.826154,0.547272727 L147.049883,0.547272727 Z M298.102898,29.5433333 C300.505808,35.1918182 301.823923,41.3918182 301.823923,47.9160606 C301.823923,73.9554545 280.715893,95.0706061 254.662657,95.0706061 C228.618511,95.0706061 207.513511,73.9554545 207.513511,47.9160606 C207.513511,21.8645455 228.618511,0.752424242 254.662657,0.752424242 C267.610491,0.752424242 279.352325,5.98272727 287.876139,14.4342424 L271.786039,23.679697 C266.955978,20.2524242 261.044154,18.2342424 254.662657,18.2342424 C238.269541,18.2342424 224.98536,31.5221212 224.98536,47.9160606 C224.98536,64.3130303 238.269541,77.6009091 254.662657,77.6009091 C271.055772,77.6009091 284.346014,64.3130303 284.346014,47.9160606 C284.346014,38.2706061 279.743215,29.7130303 272.628421,24.2857576 C292.024416,20.8675758 297.893818,29.340303 297.893818,29.340303 L298.102898,29.5433333 Z" id="info" fill="#0072BC"></path>
            </g>
        </g>
    </g>
</svg>