<svg xmlns="http://www.w3.org/2000/svg" viewBox="0 0 926.16886 834.32974"><path d="M187 300.6h555.4v54H766v-61.2c0-7.2-1.3-13-8-16.6H170.4c-5.7 4-7.5 9.3-7.5 16.3v61.7h24zM502.5 714H429c-4.3 0-8.8-.2-8.8-5.8 0-5 4.4-5.5 8.4-5.5h74.2c4 0 8.4.3 8.4 5.5 0 5.5-4.4 6-8.7 6M832.8 695c-20.7-.2-41.3 0-62 0h-7.3c.8-6.2 2.2-11.8 2.2-17.3V646h-23.3v26.3H187V646H163v34c0 4.7 1.8 9.6 3 15-21.2 0-42.8-.2-64.5 0-3.7 0-7.6.4-11.2 1.3-7 1.6-11.4 5.7-12 13-1 7 2.2 12.3 8.6 15.5 1 .5 1.7 1 2.5 1.7H842c3.7-4.2 9.2-8 10.6-12.7 3-10.7-6-18.7-19.8-18.8" fill="#d6d6d6"/><path d="M75.3 618.5H22v-236h53.3zM256 382.4v236h-53.8l-66.6-132v132H82.3v-236h54.2L202.8 514V382.5zM403.7 545.2c0 3.7-.3 7.4-.8 11-.7 3.7-1.5 7.3-2.5 11-2.3 7.2-5.8 14.2-10.2 20.5-4.3 6.3-9.7 11.8-15.8 16.3-6.2 4.6-13 8.2-20.3 10.7-7.6 2.5-15.5 3.8-23.5 3.8-9.8 0-19.4-2-28.4-5.7-17.5-7.6-31.4-21.5-39-39-3.7-9-5.7-18.8-5.6-28.6H311c0 5.3 2 10.4 5.7 14 3.6 4 8.7 6 14 6 4.2 0 8.4-1.4 11.7-4 3.3-2.5 5.8-6 7-10 .7-1.8 1-3.8 1-5.7 0-5-2-10-5.8-13.3-3.8-3.4-8.8-5.2-14-5-9.7 0-19.3-2-28.3-5.7-8.6-3.5-16.5-8.7-23.2-15.2-6.5-6.4-12-14-15.6-22.7-3.8-9-5.8-18.5-5.7-28.2 0-3.6.3-7.2.8-10.8.5-3.6 1.3-7.2 2.4-10.8 2.2-7.3 5.6-14.3 10-20.6 4.4-6.3 9.8-11.8 16-16.3 6-4.7 13-8.3 20.2-10.8 7.6-2.5 15.5-3.8 23.5-3.8 9.7 0 19.4 2 28.4 5.7 17.6 7.6 31.5 21.6 39 39.2 3.8 9 5.7 18.5 5.7 28.2h-53.3c0-10.8-8.6-19.6-19.4-19.7h-.3c-4.3 0-8.4 1.4-11.8 4-3.4 2.5-5.8 6-7 10-.7 1.8-1 3.7-1 5.7-.2 5 2 10 5.7 13.3 4 3.4 9 5.2 14 5 9.7 0 19.4 2 28.4 5.6 8.7 3.6 16.5 8.8 23.2 15.3 6.7 6.4 12 14 15.7 22.7 3.8 8.8 5.7 18.3 5.7 28M460.8 618.5h-53.3v-236h53.3zM625 435.7h-53.5v182.8h-53.3V435.7h-53.6v-53.3H625zM679.6 435.7v38H747v53.4h-67.3v38.2H771v53.3H626.4v-236H771v53.2zM871.3 618.5L830 529h-.6v89.5H776v-236h72c19.7 0 38.5 7.6 52.3 21.3 6.7 6.7 12 14.7 15.7 23.4 4 9 5.8 18.7 5.7 28.5.2 13.8-3.7 27.3-11 39-7.2 11.2-17.3 20.3-29.3 26.4l44.8 97.5z"/><g fill="#a31621"><path d="M880.4 305c0-6.2-4.8-12.6-9.8-12.8-4.8-.3-12 7-12.2 12.5-.3 6 6 11.6 12.5 11.5 5.5 0 9.4-4.6 9.4-11M846 340l-11.2-12.4-9 5.4c-2.8 1.5-4.5 1.2-5.3-2.3-1.8-8.2-3.8-16.2-6-24.3-.8-3.6.4-5.4 4-5.7l9.4-.7c1.5-4.7 3.3-9 4.3-13.4.4-1.7-.8-4.2-2-5.4-5.8-6-6-7 .4-12.4 3.3-2.7 7-5 10.5-7.2 3.3-2 6.7-3 9.4 1.6.6 1 3.4 1 5 .8 2-.3 4-1.5 6-2.3.2-.4.4-.8.4-1.2-1-13 0-14 13.2-11.4 2.7.5 5.4 1.5 8 2.4 10 3.7 9.5 3.6 7.7 14-.6 2.4 2.5 5.3 4.4 9l3.3-4c6.4-7 9.7-6.6 14 2 2 4 4 8.3 6.4 12.3 2.3 3.8 2.2 6.6-2.3 8-5.8 2-8.6 5.3-6.4 11.8.7 2 .2 4.4-.3 6.6-.6 3.2-1 5.5 3 7.2 4.3 2 3 5.2.7 8.4-3.6 5-7 10-10 15.2-3 5.6-5.3 6.6-10.3 2.4-2-1.5-3.2-3.5-4.8-5.3-4.6 1.3-9 2.3-13.4 4-1.5.6-3 3.2-3 5 0 5-2.3 6.3-6.8 5.6-5.4-1-10.8-1.7-16-3-6.5-1.5-7-2.6-4.4-9l1-2"/><path d="M812 246.4c4.5-.2 7-3 7.2-7.2.2-4.4-2.8-7.7-7-7.5-3.4.2-8.2 1.8-8.2 7 0 4.7 3.6 6.7 8 7.7m-31-13.7c3-5.3 1.4-8.4-3.3-11.6-5.8-3.7-5.8-6.5-1.4-11.8l2-2.3c10.2-9.8 7.8-9 18.3-.6 2.2 1.8 3.7 3 6.7 1.5 2-1.2 4.7-1 7.3-1.5.4-1 1-2.4 1.3-3.7 1-4 3-5.2 7-3 4.7 2.5 9.7 4.8 14.7 7 3.3 1.3 4.6 3.3 2.7 6.4-3.2 5.5-2 10.4 2 15.5h10.3c3.8-.2 5 1.7 4.6 5.2-.7 4.5-1.4 9-2.4 13.7-1 4.3-3 7-8 4.4-1.6-.7-3.6-.6-3.7-.6L820 269.7l-1.6-1c.8 3 1.5 5.7 2.5 8.5 1.2 3.8-.3 5.5-4 5.6-5.6 0-11.2 0-17-.5-1 0-3-2.5-3-4 0-3.3.8-6.7 1.2-10.4-2.3-2-4.7-5-7.7-6s-7-.7-10 .6c-4 2-6 1-7-3-1-4.7-2.4-9.4-3.4-14-1.5-8-.5-9.5 7.2-12 1.4-.3 2.7-.6 3.8-1M68.7 251.8c12.8 10.8 30 17.8 31 38l6.5-2.5c-4-6-7.4-12-12-17-7-8-11-20-25.5-18.5M132 291c-4.5-5.4-8.3-5.4-13-2.8-5 2.8-10.3 5.2-15.8 7.3-2.4 1-5.4.6-9.2 1l-6.6 7.7c17-.5 31.5-3.4 44.7-13m-37.6 20c0 5.3 1.3 7.4 6 8 10.4 1.3 20.2-.7 28.5-7.4 3.5-3 5-6.8 2.6-11l-37.2 10.5m6.8-88.4c-8.5 10.6-1.8 45.2 12.4 61.3-6.3-20-1-42-12.4-61.4m-.5 102.4c-3 8-2 10.5 6 10.5 11.2-.2 21.7-3 31-9.5 6.6-5 6.3-9.7-.7-14.8-9.5 11-22.2 13.7-36.3 13.7m-4-1c-6-2.6-9.4-6.6-6.8-13.5-10-5.3-10-6.2-1.5-14-4-9.5-8.8-18.2-19.7-21.4-36.5-11-34.6-48.8-9.7-68.6 10-8 21.7-12.5 34.5-13 22.8-.8 40.4 20.6 35.6 43.3-1 5-2.2 10.2-4 15-4 9.7.8 18.4 2.5 27.5 0 .2.2.5.3.5 12.2 3.3 8 14.3 10.7 22 .7 2 2.4 4 4 5.5 8 7.5 8.3 15.7-.4 22.5-10.8 8.5-23.7 12-37.4 11.4-11.3-.6-14.4-7.5-8-17.2M29.4 296.2c-2.3-.5-4-1-5.4-1.2.4-1.7.2-4 1.3-5 4.6-4.4 9.6-8.5 14.6-12.6.7-.6 2.5-.2 3.8-.3 0 1.2.5 3 0 3.5-4.7 5.3-9.5 10.4-14.4 15.7M28.3 250.6c-7.8 3.2-15.6 6.5-23.5 9.4-1.2.4-3.2-1.4-4.8-2 .8-1.5 1.4-3.8 2.4-4 8.4-2.2 17-4 25.4-5.8l.5 2.4M32.6 227c-1.7.2-3.4.7-5 .4-5.4-.8-10.8-1.7-16.2-3-1.2-.3-3.2-2.5-3-3 .5-1.6 2.3-3.8 3.5-3.7 7.6.6 14.8 2.8 21 7.4l-.4 2M120 187.7c-3.3-5.2.5-19.6 4-21.8 1-.7 2.7-1 3.6-.6 1 .5 2 2.4 1.6 3l-9 19.3M144.8 240c7.4 1 13.7 2 20 3 .3 0 .7 3.6 0 4.2-3 2.3-17-2-20-7.2M136.6 203c0-6.3 9.4-14.2 13.3-12.2.8.4 1.2 4.2.6 4.6-4.2 2.6-8.8 4.8-14 7.5M462 105.8c-20.5-11.6-32-27.3-35.3-49.2-3-20 11-40 25.8-47.5C485-7.4 542.3-.5 569.8 23.7c16 14 19.6 32 9.8 50.8-12.8 24.8-34.8 36.2-61.2 39.8-7.3 1-12.4 3-17.5 8.6-14.8 16.6-34.8 19-55.4 16.8-8-.7-7.8-5.6-3-11 6.2-7 12.2-14.4 19.3-22.8M354 254.4c-5-23.8-4.7-43.8 11.2-60.2 17.5-18 41.7-14.5 52.3 8.3 5 10.6 7 22.6 9 34.2 1.3 8-1.6 14.3-11.6 14.7-20 .8-40 2-61 3M576 253c-15.7 0-28.7.3-41.7 0-5.7 0-10.8-2-9.5-9.4 1.3-8 2-16.3 5-23.8 6.8-19 21.7-27 38-21.8 18 5.7 33 30 28.2 46.5-3.6 12.5-14.3 7.8-20 8.6M561 180c-14.2.2-26-12.3-25.6-27.2.2-11.3 17.2-27 29-26.8 13.3.2 27.3 14 27.4 26.7 0 14-15 27.3-31 27.4M387.6 124.8c17.4 0 28 9.3 28 24.4 0 13.3-10 22.4-25 22.4-15.6 0-27-10.3-27.4-25-.3-14.4 7.8-21.6 24.4-21.8M501 243.8H469c-4.5-.2-8.4-1.7-7.4-7.4 1-6.2 1.6-12.7 3.8-18.5 5.4-14.8 17-21 29.6-17 14 4.4 25.6 23.3 22 36-3 9.8-11.2 6.2-15.7 6.8M489.5 187c-11 0-20-9.6-20-21.2.3-8.7 13.5-21 22.7-20.8 10.3 0 21.2 10.8 21.3 20.8 0 10.8-11.7 21-24 21.2M806.8 134.2c8.4-2.8 16.6-2 24 4 7.7 6.5 9 24-2.7 29.5-11.8 5.7-23.5 11.2-36.7 12.8-1.3 0-2.6.3-3.7.8-3.7 1.6-5.7-.7-7-3.3-3.7-6.3-7.3-12.7-10.5-19.3-3-6.3-4.8-13-5-20.2-.5-9.8 4.2-17.4 12.2-20.2 9-3 20.6 0 25.7 7.2 1.6 2.5 2.4 5.6 3.8 8.7M684.6 66.8h-25c5.8 7.3 14.3 7.3 25 0m-10.3 161.7c-4-4-6-6.4-8.3-8.6l-9.8 9.5c2.4 2 5 6.3 7 6 3.4-.5 6.3-3.8 11-7m38.4-141H633c4.4 38.3 6 77.6-.7 116.7 24.5 5.4 47.4 1.6 72-2.3l8.3-114.6M607.4 161c2.2-26 4.6-59 8-92 .6-4.7 5-11 9.3-13.2 7.8-4.2 16.8-7.6 25.5-8.2 17-1.3 34.4-1 51.6-.3 14.7.6 25.2 8.7 29 22.7 3.5 12 6 24.7 6.2 37 .4 18.4-1.8 36.7-2.5 55-.7 21.4-.4 42.8-1.7 64-1.3 21.5-11 30.2-32.2 30-21.3 0-42.7-.4-64-1.3-17.4-.7-27.7-9.4-28.8-26.6-1.4-19.8-.4-39.8-.4-67M235 84.7c2.7-2 3.6-2 5 1.2 2.8 6 5 12 7.3 18.3.7 1.8 0 2.8-1.8 3.6-5.6 2.4-10.7 1.6-13-2.7-2.8-5-2.6-10.5-.3-15.8.6-1.5.5-2.7 0-4-4.7-11.7-1.7-25.8 7-33 8.6-7.3 20-7.2 28.7 0 4.3 3.8 7.5 8.5 10.2 13.6.5 1 1.7 1.6 2.5 2.3 2 1.5 4.2 2.6 5.6 4.5 4 5.3 3.2 13-1 18-2.5 2.8-4.3 2.6-5.8-.6-2-4-3.7-8.3-5.5-12.5l-.7-1.5c-2-3.8-2-5 1.6-8C272 63 269.2 58 264.5 54c-7.5-6-19.6-4-26 4.4-5 6.7-6 14.4-4.5 22.5l1 3.7"/><path d="M264 85.5c-.2-3.5-.5-7-.2-10.6 0-2.3 2.5-2.5 4.3-2.7 2 0 1.8 1.3 2 2.4.4 1.2 1.2 2.2 1.7 3.3 2 4.7 4 9.3 5.7 14 .7 1.7-.3 2.4-2 2.3-4-.4-7-2.6-9.2-5.8l-1.6-3h-.7M242.6 81.4c2-1.7 3.7-1.5 5.5.2 4.4 4.3 7 9.4 7.7 15.5 0 2-.7 4-1.6 5.7-1 2-2.5 1.6-3.3-.4l-3.5-9.4-4.6-11.6M320.7 47.6c-6-10-6-16.5-.2-23 5.5-6.4 13-7 19.6-1.8 8.7 7 10.4 16.8 4.3 26h11.4c-1.3-3.6-3-7.2-3.8-11-1-5.2.8-10 4-14 7.6-8.8 20-6.8 24 4 3 8 1.2 15-5 21.4 8.6 0 14.3 3.5 17.4 11.2 2.8-1.2 5.3-2.3 8-3.3 2.6-1 5.2-2.2 8-3 4.8-1.3 5.7-.7 6 4.3.8 8.7 1.4 17.4 1.8 26.2 0 3-.2 6-.8 9-.6 3.4-2.8 2.7-5 1.7L393 87.8c-1 2.8-1.8 5.2-3 7.6-1.6 4-4.4 7-9 7-15.3.2-30.8 1-46.2 0-18.3-1.2-27-12-25.2-30.6.5-6.6 2.3-13 4-19.6 0-1 2-1.7 3-2.4l4-2.2M139.4 142c-7.8-1-15.2-1.5-22.3-3-2.5-.5-6.4-3-6.5-5-.2-2.3 2.5-6.4 4.7-7 18.7-4.7 24.2-17 23.3-35-.5-10.7 4-12.4 13.5-7.4 5 2.7 10.3 5.6 14.2 9.7 5.8 6 11.5 6.5 19 3.8 5-1.7 10.4-2.5 15.8-3.2 2.2-.2 5.8.7 6.5 2.2 1 2 .8 6.5-.7 7.6-15 11.7-16.3 23.7-2.3 37.3 1.3 1.2 1 5.5 0 7.6-.7 1.4-5 2.4-6.6 1.7-19.8-9-34-2.4-44.5 15-1 2-5.2 4-5.8 3.6-2.7-2.5-6-5.4-6.6-8.7-1.3-6-1-12.5-1.6-19.3M268.2 249.2c38 0 63-29 54.8-64.4-7-30-32-44.6-61.4-36-10.4 3-18.7 8.7-25.4 17.2-9.6 12.3-15 26.3-15.7 42-.7 14.5 4 26.5 17.7 34 9.4 5 19.4 7.3 30 7.2M270 265c-14.3-.4-26-2-37-6.8-16-6.8-23.2-20-25.3-36.4-3.8-29 4.5-55 25.6-75.3 16.4-15.8 36.5-20.6 59.2-15 26.4 6.8 37 26.3 43 50 3 12 2.8 24.2-.3 36.3-6.4 25.6-26 42.6-52.8 46l-12.5 1"/><path d="M270 211.7l8.6-7.4c-8.6-2-10.7 0-8.5 7.4m2.6 5.5c-6.4.2-10-2-12.5-6-5-8-6.4-17-6.8-26.4 0-3.3 1.6-4.6 4.8-2.8 7.5 4 15.4 7.7 22.4 12.6 10.3 7.3 9 16-2.6 21-2 1-4.4 1.3-5.2 1.6M274.7 167.2c-.2-4.2-.5-7.6-.5-11 0-.7 1-1.6 1.6-1.7.7 0 1.7.3 2.2 1 1.6 1.8 0 9-3.3 11.7M304.8 203c.5-1.3.7-2.3 1-2.4 2.7-1 5.5-1.7 8.2-2.2.3 0 1 1.5 1.5 2.4l-7 2.4c-1 .3-2 0-3.7 0M254.6 172c-2 1-3.3 2-3.5 2l-5.4-7c1-.5 2.2-1.5 2.4-1.3 2 1.8 4 4 6.6 6.4M302.6 168.7c1.3 2.4 2.4 3.7 2.2 4.2-1.5 2.2-3.3 4.3-5 6.4-.5-.6-1.8-1.6-1.7-2 1.2-2.5 2.6-5 4.6-8.7M230 193.8c2-.3 4.2-1 6.4-1 .8 0 1.7 1.3 2.5 2-1 .8-1.7 2-2.5 2-2.3 0-4.6-.4-7-.7l.4-2.2"/></g><path d="M151.2 833.2c-.4 1-1.2 1-2 .3-1.7-1.4-2.8-5.2-1.2-11 1.2-4 3.8-9.7 6.8-15.8.2-13.4 1-30 3.2-40.6.3-1.6 1.3-1.7 2.3-1 2.6 1.6 4.3 4.8 3.8 12.7-.2 6-1 13.2-1.5 21.4 10.2-11.2 25.6-26.3 34.3-34 1.2-1 2-.6 2.3.6 1 3.2 0 8-6.6 14.4-8 7.6-17.3 16-30.8 30.5-4.6 8.2-8 16-10.4 22.7M200.5 797.6c-.3 3 .6 5.7 2.5 7.4 1-3 1-6 .8-7.7-.4-3.5-3-2.8-3.3.3m-5.3-.2c-3 2.4-6.2 6-8.6 10.4-4.6 8.2-6 18.2-3.3 20.7 3 2.5 9.7-1.4 15-11.4 2-3 3-6 4-8.8-3.7-2-7-6.3-7-10.8m50 36.6c-7.2 0-10-4.4-9-10.8-4 5-9.5 11-15.7 10.3-7.8-.6-8-8.6-5.6-16 1-2.6 2.3-6 4.2-9.3-3 1.5-6.5 2.3-10 2-2.4 9.2-9 20-17 22.7-4 1.2-9.5.8-13.8-5-4.8-6.4-3.2-15.8 1.6-24.6 4.2-7.6 11-13.7 17.6-14 3.3-.4 5 .6 7.4 3.6 2.6 3.3 5.7 4 5.2 12 0 .7 0 1.4-.3 2.2 6.2 0 12.2-5.2 16-11.2 1-1.8 2.8-4.2 4-6 1-1.3 2-1.2 2.8-.2 2.5 3.6 2 8.2-2 14.7s-6.5 10.8-8.6 16c-2.2 5.4-1.8 9.2.6 9.4 4.2.3 10.4-7.2 16.2-16.7 6.8-11 10-18.7 13.4-23.4 1-1.5 1.8-1.7 2.7-.7 1.7 2 2.6 6.7 0 12-2.4 5-7.8 13-10.3 18.8-3 6.4-2.4 11 1.5 10.7 4.5-.2 10.2-7.5 14.4-15 .5-1 1.4-1.2 2-.2.5 1 .5 3.8-1 6.8-3.2 6.2-10 11.7-16.4 11.7M307.6 789.2c-1.4 1.5-4.5 1.2-6.2-1.7-1.7-3-1.2-6.2.6-8 1.7-2 5-.6 6.3 2.3 1.5 3 .7 5.8-.7 7.4M283 817.8c3-8 10-21 14.2-26.7 1-1.2 1.7-1.5 2.6-.5 1.6 1.7 2.5 6.4 0 12-2.4 4.7-7 12.2-9.3 17.7-2.6 6.3-2.4 10.6 1 10.4 5-.2 11-7.5 14.3-15 .6-1 1.3-1 1.8 0 1 1.7.5 4-.8 6.8-3.3 6.8-10.2 11.4-16.3 11.4-8.3 0-10.4-7-7.4-16"/><path d="M338.5 789.2c3.6.5 7 6 4.3 11.6-2.3 4.8-7.7 13-10.2 18.6-3 6.4-2.2 11.5 1.7 11.3 4.5-.2 10-7.5 14-15 .6-1 1.4-1 2-.2.7 1.2.5 3.7-1 7-3 6-10 11.6-16.3 11.6-9.3 0-11.5-6.7-8.3-16.2 3.6-10.8 13.2-22.4 11.3-23.3-1-.4-7.5 2.7-14.5 10.3-6.5 7-11.3 17.6-16 28-.4.8-1 1.3-2 .3-2.3-2-3-5.7-1.2-11.2 2.2-7 10.7-22 17.6-32.3.6-1.2 1.5-1 2.2 0 1.6 2.7 1.5 6.5.3 10.4 5-5.4 12.4-11.4 16-10.8"/><path d="M352.3 820c1.6 6.4 4.8 11 8.4 9.8 5-1.5 3.4-18.7 3-27.5-3.2 5.8-7.2 11.8-11.4 17.8m11.6-24.7c.5-4.3 1.5-6.4 3.8-8.4 2.5-2.3 5-2.8 6-1.8 1 1 .5 2.3-1 4.8l-1 2c-1 10.2 1.2 18.7 1 26.3-.3 4.3-1 9-5 11.5 7.3-2.7 12-9.3 14.6-15.2.6-1.2 1.7-1 2 0 .5 1 .4 3.8-1.4 7.2-4.2 7.6-11.6 11.7-19.4 12-6.4.3-12.5-1.4-16.2-8.2-2.7-5-2.3-12 1.4-15.2 1.3-1 2.2-.6 2.3 1l.3 2.7c4.5-6 9.4-13 12.6-18.7"/><path d="M404.8 789.2c-1.4 1.5-4.5 1.2-6.2-1.7-1.7-3-1.2-6.2.6-8 1.7-2 5-.6 6.3 2.3 1.5 3 .7 5.8-.7 7.4m-24.5 28.6c2.8-8 10-21 14-26.7 1-1.2 1.8-1.5 2.7-.5 1.6 1.7 2.5 6.4 0 12-2.4 4.7-7 12.2-9.3 17.7-2.6 6.3-2.4 10.6 1 10.4 5-.2 11-7.5 14.3-15 .6-1 1.3-1 1.8 0 1 1.7.5 4-.8 6.8-3.3 6.8-10.2 11.4-16.3 11.4-8.3 0-10.4-7-7.4-16"/><path d="M414 811c-5.8 9.4-7 19-2.8 19 4.4 0 10.3-6.3 15.5-16.3 6.3-12.2 8-19 4.8-19.2-3.4 0-11.4 6.8-17.4 16.5m19.2 20c4.4-.3 10.4-7.7 14.2-15.2.5-1 1.3-1 1.8 0 .4 1 .5 3.7-1 6.7-3 6-9.7 11.8-15.7 11.5-6-.4-9-3.6-9-8.8-3.4 4.4-8.3 8.4-13.5 8.4-10.2 0-12-14-3-27 8.5-12.7 17.3-17.7 22.8-17.7 4.5 0 6.6 3.3 6.5 7.4 6-11.3 14.3-26.2 18.2-31.8 1-1.5 2-1.4 2.7 0 1.5 3.6 1.2 8.3-3.4 16.6-5.3 9.4-15.8 27.5-21.3 39-3 6.4-3 11 .7 10.7"/><path d="M469 805.5c3.6-4.6 6-10.3 4.5-11.5-2.3-2-11.4 4.7-16.6 15l-1 2c5.4 3.4 10-1.3 13-5.5m-9 25.2c9 .4 17-8.3 21.8-15.6.6-.7 1.4-.7 2 .2.3 1 0 4-2 6.8-4.6 6.7-13 11.8-21.5 12-14 0-18.7-13.6-11.6-27.7 7-14.2 18.3-20 23.8-16.7 2.7 1.6 4.7 3.3 6.5 5.7 2 2.6 1 9.3-3.5 15-5.4 6.5-12.8 9.3-20.4 3-3.4 10.2-.8 17 5 17.4M510.7 786.6c-1-1.5-.4-2.3 1.2-2.2 3 .2 6 0 9-.4 3.4-6 6.5-11.2 8.4-13.6 1-1.4 2-1.3 2.6 0 1.2 3 1.2 6.7-1.4 12.4 4.2 0 6 2 6.8 3.3.7 1.4.3 2.2-1.4 2.2-2.4-.4-5.8 0-8.5.4-4.3 7.4-10.5 18-14.7 27.2-3.6 8-2.4 14.8 2.2 15 5 .2 11.2-7.6 15.2-15.8.7-1.3 2-1.5 2.3 0 .6 1.8 0 3.7-1 6.3-1.5 3-8.7 12.8-17.5 12.5-7.2-.3-13-8.4-7.8-21 2.3-5.5 7-14.7 11.7-23.3-4 0-6.4-1.7-7.3-3"/><path d="M555 834c-9 0-11.4-6.8-8-16.4 3.5-10.6 13-22 11.3-23-1.5-.8-13.5 6.6-19.8 17-4 6.5-8 14.2-10.7 20.8-.4 1-1.2 1.2-1.8.5-1.8-2-2.8-5.2-.5-11.7 4-11 26.7-49.6 35.5-60.6 1-1.3 2-1.2 2.7 0 1.4 3.3 1 8.7-3 15.6-2.7 4.4-8.5 13.3-13.3 20.6 4.5-4.4 10.2-8 13.2-7.7 3.7.4 7 6 4.3 11.5-2.5 4.8-7.8 12.8-10.3 18.5-2.8 6.3-2.2 11.5 1.8 11.3 4.5-.2 10.6-8 14-15 .4-1 1.5-1 2-.3.5 1.3.5 3.6-1.2 6.8-3 6.4-9.7 12-16.2 12"/><path d="M593 805.5c3.5-4.6 6-10.3 4.4-11.5-2.3-2-11.4 4.7-16.5 15l-1 2c5.4 3.4 10-1.3 13-5.5m-9 25.2c9 .4 17-8.3 21.7-15.6.6-.7 1.5-.7 2 .2.3 1 0 4-2 6.8-4.6 6.7-13 11.8-21.4 12-14 0-18.8-13.6-11.7-27.7 7.2-14.2 18.3-20 23.8-16.7 2.8 1.6 4.7 3.3 6.5 5.7 2 2.6 1 9.3-3.6 15-5.4 6.5-12.7 9.3-20.4 3-3.5 10.2-1 17 5 17.4M684 788.6c1.4-.2 2 1.4 1.6 3.7-1 4.4-2.7 9.4-9.5 21-7.4 12.3-15 20.8-22.5 20.6-4.7-.2-7.3-4.5-7-9.2-3.5 4.5-8 8.8-13.4 8.5-6.7-.4-8-7.5-5-15.7 2.5-7.2 8-18 15.2-28 1-1 2-1 2.6 0 2.7 3.6 2 8.3-2 14.8-4 6.2-6.7 11.4-9 16.6-2 5.4-2 9.3.5 9 4.4 0 8.5-7.3 14.4-16.8 7-11.2 10.2-18.8 13.8-23.5 1-1.4 1.7-1.6 2.7-.7 1.6 2 2.4 6.8-.2 12.3-2.4 5-8 13.3-10.6 19-3 6.3-2.7 10 .5 10.2 3.8 0 10.3-7.2 16.3-17.5 1.8-16.7 9.4-24 11.7-24.4M706 805.5c3.4-4.6 5.8-10.3 4.3-11.5-2.3-2-11.4 4.7-16.6 15l-.8 2c5.2 3.4 9.7-1.3 13-5.5m-9.2 25.2c9 .4 17-8.3 21.8-15.6.6-.7 1.4-.7 2 .2.3 1 0 4-2 6.8-4.6 6.7-13 11.8-21.5 12-13.8 0-18.6-13.6-11.5-27.7 7-14.2 18.3-20 23.8-16.7 2.7 1.6 4.7 3.3 6.5 5.7 2 2.6 1 9.3-3.6 15-5.3 6.5-12.7 9.3-20.3 3-3.6 10.2-1 17 4.8 17.4"/><path d="M737 798c-4.8 5.3-10 14.4-14 22.8 0 3.2 1.5 6.7 4.5 7.4 3.8.8 9-2.4 15.2-15.2 6.3-12.3 5-19 2.4-19.2-2.2-.3-4.6 1-8 4.3m-4.8 35.3c-5.8 0-9.5-3-11.5-7.8l-3.2 7.3c-.4 1-1 1.2-1.7.3-1.7-2-2.8-5.3-.6-12 3-9 24.4-49.6 32-60 1-1.5 2-1.5 2.7 0 1.6 3 1.6 8-3 16.2-1.5 3-6.3 10.6-9.7 16.7 3.2-3 6.6-4.7 9.5-4.7 9.3 0 9.7 13 3.7 26.3-5.2 11.5-12 17.7-18.3 17.7M789 765c1.4 3 1.2 8.4-3.3 16.5-6 10.8-15.3 28-21 40.2-.4 1-.8 1.3-1.7.4-1.7-1.6-2.8-5.2-.3-11.8 4.3-11.7 15.3-33.4 23.5-45.5 1-1.3 2-1.3 2.8.2m-28.2 68.4c-1.3 1.7-4.5 1-6-1.5-1.8-3-1.2-6.2.5-8 1.7-2 4.8-.7 6.3 2.4 1.2 2.5.4 5.5-.8 7"/></svg>
