<svg xmlns="http://www.w3.org/2000/svg" id="Layer_1" data-name="Layer 1" viewBox="0 0 316.69 76.2" class="card-page__logo"><defs><style>.cls-1{fill:#858ae3;}.cls-2{fill:#613dc1;}.cls-3{fill:#2c0d35;}</style></defs><title>omnitrade_blue</title>
  <path class="cls-1" d="M280.46,305.91c.6,1.1,1.77,2.36,2,3.61a15.62,15.62,0,0,1-.3,4.2c-.34,2.58.05,4.36.72,4.91a33.8,33.8,0,0,1-12.81-25.44c-.21-6,1-12.62,4.72-18,2.56-3.73,6.79-6.12,12.25-3.86a28.36,28.36,0,0,0-7.5,9.16c-2.39,4.39-2.72,10.64-2.72,10.63C276.38,296.8,278.11,301.61,280.46,305.91Z" transform="translate(-263.64 -259.05)"></path>
  <path class="cls-1" d="M315.14,323.33c-2.86,1.18-7.75,2.95-12.84,2.28-4.76-.64-7.15-4.34-8.67-8.41a29.11,29.11,0,0,0,11.72,1.91,30.43,30.43,0,0,0,10.2-3,24.65,24.65,0,0,0,7.36-5.58,29.16,29.16,0,0,0,5-7.62c.83-1.19,3-1.8,4.26-2.31a20.4,20.4,0,0,0,4-2.21c-1.49,9-7.38,16.93-14.24,21.7A33.8,33.8,0,0,1,315.14,323.33Z" transform="translate(-263.64 -259.05)"></path>
  <path class="cls-1" d="M329.71,287.83a26.6,26.6,0,0,0-17.19-20.48,25.78,25.78,0,0,0-9.13-1.65c-3.49-.36-6.72-3.57-9.65-5.25a34.09,34.09,0,0,1,20.79.48,32.37,32.37,0,0,1,16,12c2.94,4.22,3.15,6.23,3.15,7.12A10.23,10.23,0,0,1,329.71,287.83Z" transform="translate(-263.64 -259.05)"></path>
  <path class="cls-2" d="M305.63,335.17c-7.12.55-13.44-1.56-18-8.65a19.3,19.3,0,0,1-3-12.9,16.53,16.53,0,0,0-2.27-10.7c-1.81-3-2.54-7.88-2.57-11.45,0,0,5,1.52,8.7,7.53a21.47,21.47,0,0,1,3.12,13.06s-2,7.15,3.22,12.81a12.2,12.2,0,0,0,6.52,3.42h0a11.24,11.24,0,0,0,2.78.15c.85,0,1.68-.44,2.53-.44h0c5.45-1,9.24-1.2,13.76-3.75C319.73,326.15,314.92,334.45,305.63,335.17Z" transform="translate(-263.64 -259.05)"></path>
  <path class="cls-2" d="M333,297c-2.85,1.52-4.18,1.8-5.79,3.08a13.38,13.38,0,0,0-2.66,2.86c-.73,1.09-1.11,2.44-1.77,3.52a20.73,20.73,0,0,1-7.17,6.58c-1.2-8.43,2.67-16.62,10.44-20.37a56,56,0,0,0,5-2.5,11.87,11.87,0,0,0,4.41-4.83,12.44,12.44,0,0,0-1.37-13.1,41.21,41.21,0,0,0-12.81-11.37c11.27-1.72,22.44,6.51,22.87,17.8a18.86,18.86,0,0,1-3.44,12.08C338.92,293.44,336.21,295.29,333,297Z" transform="translate(-263.64 -259.05)"></path>
  <path class="cls-2" d="M315.07,271.48a11.74,11.74,0,0,1-2.66,1.64,19.31,19.31,0,0,1-4,1.5,21.27,21.27,0,0,1-5.19.61,19.62,19.62,0,0,1-11.7-4.28,13.43,13.43,0,0,0-10.31-3c-4.17.36-7.83,3.5-9.62,7.23-2.55,5.33-4.17,10.17-4.26,16.14a19.33,19.33,0,0,1,15.82-30.74,18.47,18.47,0,0,1,9.12,2.51c1.57.87,3.32,2.45,4.86,3.35a11.2,11.2,0,0,0,4.3,1.73,69.6,69.6,0,0,1,7.31.81A21.8,21.8,0,0,1,315.07,271.48Z" transform="translate(-263.64 -259.05)"></path>
  <path class="cls-3" d="M365.57,303.58v-12.7c0-3.61,1-6.24,2.89-7.91A13.32,13.32,0,0,1,384,283c1.94,1.67,2.91,4.3,2.91,7.91v12.7q0,5.4-2.91,7.91a13.32,13.32,0,0,1-15.54,0C366.54,309.82,365.57,307.18,365.57,303.58Zm5.92,0c0,3.48,1.57,5.23,4.73,5.23s4.77-1.75,4.77-5.23v-12.7c0-3.48-1.59-5.23-4.77-5.23s-4.73,1.75-4.73,5.23Z" transform="translate(-263.64 -259.05)"></path>
  <path class="cls-3" d="M392,311.85V283.42a2.8,2.8,0,0,1,.84-2.23,3.15,3.15,0,0,1,2.12-.72,4.71,4.71,0,0,1,2.59.59,7.4,7.4,0,0,1,2,2.54l5.6,10.2,5.59-10.2a7.17,7.17,0,0,1,2-2.54,4.87,4.87,0,0,1,2.62-.59,3.17,3.17,0,0,1,2.12.72,2.8,2.8,0,0,1,.84,2.23v28.43a1.53,1.53,0,0,1-.89,1.37,4.17,4.17,0,0,1-2.07.5,4.12,4.12,0,0,1-2.09-.5,1.52,1.52,0,0,1-.87-1.37V292.29l-5.32,9.47a2.25,2.25,0,0,1-4,0l-5.23-9.83v19.92a1.51,1.51,0,0,1-.89,1.37,4.58,4.58,0,0,1-4.16,0A1.53,1.53,0,0,1,392,311.85Z" transform="translate(-263.64 -259.05)"></path>
  <path class="cls-3" d="M423.76,311.85V282.33a1.5,1.5,0,0,1,.86-1.39,5.25,5.25,0,0,1,4.59.12,7.29,7.29,0,0,1,1.92,2.54l8.77,17V282.29a1.46,1.46,0,0,1,.87-1.37,5.08,5.08,0,0,1,4.18,0,1.46,1.46,0,0,1,.87,1.37v29.56a1.53,1.53,0,0,1-.89,1.37,4.17,4.17,0,0,1-2.07.5,3.54,3.54,0,0,1-3.41-1.87l-9.78-18.28v18.28a1.53,1.53,0,0,1-.89,1.37,4.58,4.58,0,0,1-4.16,0A1.51,1.51,0,0,1,423.76,311.85Z" transform="translate(-263.64 -259.05)"></path>
  <path class="cls-3" d="M451.28,311.85V282.29a1.47,1.47,0,0,1,.86-1.37,5.1,5.1,0,0,1,4.19,0,1.47,1.47,0,0,1,.86,1.37v29.56a1.51,1.51,0,0,1-.89,1.37,4.58,4.58,0,0,1-4.16,0A1.53,1.53,0,0,1,451.28,311.85Z" transform="translate(-263.64 -259.05)"></path>
  <path class="cls-3" d="M460.51,282.15a1.92,1.92,0,0,1,.37-1.17,1.15,1.15,0,0,1,1-.51h18.51a1.15,1.15,0,0,1,1,.51,1.92,1.92,0,0,1,.37,1.17,2.09,2.09,0,0,1-.37,1.24,1.13,1.13,0,0,1-1,.53h-7.32v28.43a1.15,1.15,0,0,1-.57,1,2.46,2.46,0,0,1-1.34.36,2.42,2.42,0,0,1-1.34-.36,1.15,1.15,0,0,1-.57-1V283.92h-7.37a1.15,1.15,0,0,1-1-.51A2.07,2.07,0,0,1,460.51,282.15Z" transform="translate(-263.64 -259.05)"></path>
  <path class="cls-3" d="M485.62,312.36V281.79a1.18,1.18,0,0,1,.39-.91,1.51,1.51,0,0,1,1-.41h8.32a11.79,11.79,0,0,1,7.33,2.11q2.78,2.12,2.77,7,0,7.51-6.78,8.88l6.73,12.78a1.18,1.18,0,0,1,.19.63,1.78,1.78,0,0,1-.73,1.35,2.36,2.36,0,0,1-1.55.61c-.63,0-1.21-.5-1.73-1.5L494.68,299h-5.24v13.38a1.14,1.14,0,0,1-.57,1,2.42,2.42,0,0,1-1.34.36,2.46,2.46,0,0,1-1.34-.36A1.14,1.14,0,0,1,485.62,312.36Zm3.82-16.56h5.87q6.29,0,6.28-6t-6.28-5.92h-5.87Z" transform="translate(-263.64 -259.05)"></path>
  <path class="cls-3" d="M507.87,312.13a1.62,1.62,0,0,1,.09-.37l9.31-30.24c.27-.88,1-1.33,2.32-1.33s2,.45,2.32,1.34l9.34,30.35a.88.88,0,0,0,0,.17.45.45,0,0,1,0,.13,1.3,1.3,0,0,1-.75,1.07,3,3,0,0,1-1.62.47,1.25,1.25,0,0,1-1.36-.86l-2-6.74h-12l-2,6.72a1.26,1.26,0,0,1-1.38.88,2.88,2.88,0,0,1-1.55-.46A1.31,1.31,0,0,1,507.87,312.13Zm6.6-9.19h10.15l-5.06-17.14Z" transform="translate(-263.64 -259.05)"></path>
  <path class="cls-3" d="M535.34,312.4V281.79a1.17,1.17,0,0,1,.48-.94,2,2,0,0,1,1.25-.38h8a10.36,10.36,0,0,1,7.15,2.38c1.78,1.6,2.68,4.11,2.68,7.53V303.8c0,3.43-.9,5.94-2.68,7.53a10.37,10.37,0,0,1-7.15,2.39h-8a1.93,1.93,0,0,1-1.25-.39A1.15,1.15,0,0,1,535.34,312.4Zm3.82-2.14h6a5.94,5.94,0,0,0,4.44-1.61,6.69,6.69,0,0,0,1.57-4.85V290.38a6.68,6.68,0,0,0-1.57-4.84,5.91,5.91,0,0,0-4.44-1.62h-6Z" transform="translate(-263.64 -259.05)"></path>
  <path class="cls-3" d="M561.09,312.36V281.83a1.17,1.17,0,0,1,.52-1,2.1,2.1,0,0,1,1.21-.36H579a1.1,1.1,0,0,1,1,.5,2,2,0,0,1,.34,1.18,2.16,2.16,0,0,1-.36,1.25,1.11,1.11,0,0,1-1,.52h-14.1v11.56H572a1.14,1.14,0,0,1,1,.48,1.91,1.91,0,0,1,0,2.22,1.14,1.14,0,0,1-1,.48h-7.1v11.6H579a1.12,1.12,0,0,1,1,.53,2.12,2.12,0,0,1,.36,1.25,2,2,0,0,1-.34,1.18,1.12,1.12,0,0,1-1,.5H562.82a2.1,2.1,0,0,1-1.21-.36A1.19,1.19,0,0,1,561.09,312.36Z" transform="translate(-263.64 -259.05)"></path>
  <path class="cls-3" d="M365.57,303.41V290.72c0-3.61,1-6.25,2.89-7.92a13.32,13.32,0,0,1,15.54,0q2.91,2.51,2.91,7.92v12.69q0,5.41-2.91,7.91a13.28,13.28,0,0,1-15.54,0C366.54,309.66,365.57,307,365.57,303.41Zm5.92,0c0,3.49,1.57,5.23,4.73,5.23s4.77-1.74,4.77-5.23V290.72q0-5.24-4.77-5.24c-3.16,0-4.73,1.75-4.73,5.24Z" transform="translate(-263.64 -259.05)"></path>
  <path class="cls-3" d="M392,311.69V283.26a2.77,2.77,0,0,1,.84-2.23,3.11,3.11,0,0,1,2.12-.73,4.8,4.8,0,0,1,2.59.59,7.35,7.35,0,0,1,2,2.55l5.6,10.19,5.59-10.19a7.13,7.13,0,0,1,2-2.55,5,5,0,0,1,2.62-.59,3.12,3.12,0,0,1,2.12.73,2.77,2.77,0,0,1,.84,2.23v28.43a1.52,1.52,0,0,1-.89,1.36,4.07,4.07,0,0,1-2.07.5,4,4,0,0,1-2.09-.5,1.52,1.52,0,0,1-.87-1.36V292.13l-5.32,9.46a2.25,2.25,0,0,1-4,0l-5.23-9.83v19.93a1.5,1.5,0,0,1-.89,1.36,4.58,4.58,0,0,1-4.16,0A1.53,1.53,0,0,1,392,311.69Z" transform="translate(-263.64 -259.05)"></path>
  <path class="cls-3" d="M423.76,311.69V282.16a1.49,1.49,0,0,1,.86-1.38,4.25,4.25,0,0,1,2.09-.48,4.44,4.44,0,0,1,2.5.59,7.25,7.25,0,0,1,1.92,2.55l8.77,17V282.12a1.47,1.47,0,0,1,.87-1.37,5.08,5.08,0,0,1,4.18,0,1.47,1.47,0,0,1,.87,1.37v29.57a1.52,1.52,0,0,1-.89,1.36,4.07,4.07,0,0,1-2.07.5,3.55,3.55,0,0,1-3.41-1.86l-9.78-18.29v18.29a1.52,1.52,0,0,1-.89,1.36,4.58,4.58,0,0,1-4.16,0A1.51,1.51,0,0,1,423.76,311.69Z" transform="translate(-263.64 -259.05)"></path>
  <path class="cls-3" d="M451.28,311.69V282.12a1.48,1.48,0,0,1,.86-1.37,5.1,5.1,0,0,1,4.19,0,1.48,1.48,0,0,1,.86,1.37v29.57a1.5,1.5,0,0,1-.89,1.36,4.58,4.58,0,0,1-4.16,0A1.53,1.53,0,0,1,451.28,311.69Z" transform="translate(-263.64 -259.05)"></path>
  <path class="cls-3" d="M460.51,282a1.92,1.92,0,0,1,.37-1.17,1.15,1.15,0,0,1,1-.51h18.51a1.15,1.15,0,0,1,1,.51,1.92,1.92,0,0,1,.37,1.17,2.07,2.07,0,0,1-.37,1.24,1.13,1.13,0,0,1-1,.54h-7.32v28.42a1.15,1.15,0,0,1-.57,1,2.46,2.46,0,0,1-1.34.36,2.42,2.42,0,0,1-1.34-.36,1.15,1.15,0,0,1-.57-1V283.76h-7.37a1.15,1.15,0,0,1-1-.51A2.08,2.08,0,0,1,460.51,282Z" transform="translate(-263.64 -259.05)"></path>
  <path class="cls-3" d="M485.62,312.19V281.62a1.18,1.18,0,0,1,.39-.91,1.56,1.56,0,0,1,1-.41h8.32a11.79,11.79,0,0,1,7.33,2.11q2.78,2.11,2.77,7,0,7.5-6.78,8.87l6.73,12.78a1.21,1.21,0,0,1,.19.64,1.78,1.78,0,0,1-.73,1.34,2.36,2.36,0,0,1-1.55.61c-.63,0-1.21-.5-1.73-1.5l-6.86-13.33h-5.24v13.38a1.13,1.13,0,0,1-.57,1,2.42,2.42,0,0,1-1.34.36,2.46,2.46,0,0,1-1.34-.36A1.13,1.13,0,0,1,485.62,312.19Zm3.82-16.56h5.87q6.29,0,6.28-6t-6.28-5.91h-5.87Z" transform="translate(-263.64 -259.05)"></path>
  <path class="cls-3" d="M507.87,312a1.47,1.47,0,0,1,.09-.36l9.31-30.25c.27-.88,1-1.32,2.32-1.32s2,.44,2.32,1.33l9.34,30.36a1.11,1.11,0,0,0,0,.17.41.41,0,0,1,0,.12,1.3,1.3,0,0,1-.75,1.07,3,3,0,0,1-1.62.47,1.24,1.24,0,0,1-1.36-.86l-2-6.73h-12l-2,6.71a1.26,1.26,0,0,1-1.38.88,3,3,0,0,1-1.55-.45A1.32,1.32,0,0,1,507.87,312Zm6.6-9.19h10.15l-5.06-17.14Z" transform="translate(-263.64 -259.05)"></path>
  <path class="cls-3" d="M535.34,312.23V281.62a1.14,1.14,0,0,1,.48-.93,1.93,1.93,0,0,1,1.25-.39h8a10.32,10.32,0,0,1,7.15,2.39c1.78,1.59,2.68,4.1,2.68,7.53v13.42c0,3.42-.9,5.93-2.68,7.52a10.32,10.32,0,0,1-7.15,2.39h-8a2,2,0,0,1-1.25-.38A1.17,1.17,0,0,1,535.34,312.23Zm3.82-2.13h6a5.91,5.91,0,0,0,4.44-1.62,6.68,6.68,0,0,0,1.57-4.84V290.22a6.69,6.69,0,0,0-1.57-4.85,5.9,5.9,0,0,0-4.44-1.61h-6Z" transform="translate(-263.64 -259.05)"></path>
  <path class="cls-3" d="M561.09,312.19V281.66a1.19,1.19,0,0,1,.52-1,2.1,2.1,0,0,1,1.21-.36H579a1.12,1.12,0,0,1,1,.5,2,2,0,0,1,.34,1.18,2.14,2.14,0,0,1-.36,1.25,1.12,1.12,0,0,1-1,.53h-14.1v11.55H572a1.14,1.14,0,0,1,1,.48,1.81,1.81,0,0,1,.37,1.16A1.86,1.86,0,0,1,573,298a1.14,1.14,0,0,1-1,.48h-7.1v11.6H579a1.11,1.11,0,0,1,1,.52,2.14,2.14,0,0,1,.36,1.25,2,2,0,0,1-.34,1.18,1.1,1.1,0,0,1-1,.5H562.82a2.1,2.1,0,0,1-1.21-.36A1.17,1.17,0,0,1,561.09,312.19Z" transform="translate(-263.64 -259.05)"></path>
</svg>
